/* XPM */
static char *product_logo___[] = {
/* columns rows colors chars-per-pixel */
"32 32 158 2",
"   c #725F2C",
".  c #597230",
"X  c #98261A",
"o  c #B5251F",
"O  c #C0171B",
"+  c #CA1A1E",
"@  c #CE1C20",
"#  c #C72422",
"$  c #D72124",
"%  c #DD2226",
"&  c #DF2428",
"*  c #E02629",
"=  c #E12C2D",
"-  c #E2302F",
";  c #E33532",
":  c #E53B36",
">  c #E53F38",
",  c #89572D",
"<  c #A6462B",
"1  c #E04725",
"2  c #E24823",
"3  c #E04929",
"4  c #E45121",
"5  c #E7443D",
"6  c #E8483F",
"7  c #C53E40",
"8  c #936552",
"9  c #C0484B",
"0  c #E14343",
"q  c #E94C42",
"w  c #E15241",
"e  c #EA5246",
"r  c #EB5649",
"t  c #EC5B4D",
"y  c #E15857",
"u  c #E15858",
"i  c #EE6454",
"p  c #EF6957",
"a  c #F06B59",
"s  c #E16063",
"d  c #E16B6F",
"f  c #5B983F",
"g  c #6D833A",
"h  c #6E9E3B",
"j  c #6FA834",
"k  c #358740",
"l  c #368941",
"z  c #398D42",
"x  c #3D9243",
"c  c #419744",
"v  c #439A45",
"b  c #529F40",
"n  c #45A246",
"m  c #48A747",
"M  c #46A946",
"N  c #49AA46",
"B  c #4AAE48",
"V  c #58AC41",
"C  c #4AB147",
"Z  c #4BB449",
"A  c #4DB849",
"S  c #69A960",
"D  c #66B666",
"F  c #6CC369",
"G  c #76C473",
"H  c #B9BA1B",
"J  c #BA9B2C",
"K  c #94B62B",
"L  c #B8B427",
"P  c #EBBC16",
"I  c #E6B41B",
"U  c #E9B61E",
"Y  c #EEBC1B",
"T  c #D69D28",
"R  c #D89F28",
"E  c #DCA426",
"W  c #DFA825",
"Q  c #E2AC24",
"!  c #E5B221",
"~  c #D7C514",
"^  c #EDCC0D",
"/  c #F5CA0D",
"(  c #F9CD0E",
")  c #FCD20A",
"_  c #EDC213",
"`  c #F3C514",
"'  c #F6C911",
"]  c #F8CB10",
"[  c #F0C018",
"{  c #F9D734",
"}  c #FDDA37",
"|  c #87B673",
" . c #E1BD5C",
".. c #81CB7F",
"X. c #FADB44",
"o. c #F5D750",
"O. c #F8DB51",
"+. c #E9CC64",
"@. c #1C649F",
"#. c #1D64A0",
"$. c #216EAD",
"%. c #2370AF",
"&. c #2D74AD",
"*. c #3774A9",
"=. c #2A76B6",
"-. c #2C77B8",
";. c #2E79BA",
":. c #327DBE",
">. c #367FC1",
",. c #4184BB",
"<. c #4C8ABE",
"1. c #3780C2",
"2. c #3A81C3",
"3. c #4385C6",
"4. c #4788C8",
"5. c #4D8CCA",
"6. c #518FCB",
"7. c #5692CD",
"8. c #5A95CE",
"9. c #5F98D1",
"0. c #649CD3",
"q. c #689ED3",
"w. c #67A0D5",
"e. c #6BA2D6",
"r. c #6EA5D9",
"t. c #78A7D4",
"y. c #7CAAD6",
"u. c #70A6D9",
"i. c #75AADB",
"p. c #7BAFDE",
"a. c #85CE82",
"s. c #BBE3B9",
"d. c #D8D585",
"f. c #8EAFC9",
"g. c #8CB6DD",
"h. c #B3CFE7",
"j. c #C6D3DF",
"k. c #CCD4DF",
"l. c #D0D5DD",
"z. c #E2C8C8",
"x. c #E2DACA",
"c. c #E9D2D3",
"v. c #DBE7DC",
"b. c #DAE8DB",
"n. c #EFEAD1",
"m. c #F2EDD4",
"M. c #C7D5E0",
"N. c #CAD6E2",
"B. c #CDDAE5",
"V. c #C4D7E8",
"C. c #CDDEEF",
"Z. c #D1DCE6",
"A. c #D8DBE1",
"S. c #D0DFEB",
"D. c #D4E1ED",
"F. c #D8E6F2",
"G. c #E9F6E8",
"H. c None",
/* pixels */
"H.H.H.H.H.H.H.H.H.H.H.H.H.H.H.H.H.H.H.H.H.H.H.H.H.H.H.H.H.H.H.H.",
"H.H.H.H.H.H.H.H.H.H.H.H.H.H.H.H.H.H.H.H.H.H.H.H.H.H.H.H.H.H.H.H.",
"H.H.H.H.H.H.H.H.H.H.H.H.i p a a a p i t H.H.H.H.H.H.H.H.H.H.H.H.",
"H.H.H.H.H.H.H.H.H.e r t i i i i i i t t r q 6 H.H.H.H.H.H.H.H.H.",
"H.H.H.H.H.H.H.H.6 q q r t t t t t t r e q q 6 : H.H.H.H.H.H.H.H.",
"H.H.H.H.H.H.: : > 6 q q q e e e e e q 6 5 5 > : ; = H.H.H.H.H.H.",
"H.H.H.H.H.= ; ; : > 5 5 q 6 q 6 q 6 6 5 : : : ; - = * H.H.H.H.H.",
"H.H.H.H.H.= = = ; ; ; : > > > 5 > : : : ; ; = = = * & H.H.H.H.H.",
"H.H.H.H.g % * * = - ; ; ; ; ; ; ; ; ; - - = & & * & * % H.H.H.H.",
"H.H.H.A Z < $ * * * * = = = 0 u y w 3 3 3 1 1 1 2 2 2 2 4 H.H.H.",
"H.H.H.A A b # $ % * * * s z.k.N.k.A.x. .I I P P P ` _ / ( H.H.H.",
"H.H.H.A A A , @ % % % d B.g.i.p.p.p.g.B.+.P ` / / ( ) ) ) H.H.H.",
"H.H.Z A A A b o + % s B.q.q.r.r.u.e.w.e.B.o.) ) ) ) ) ) ) ) H.H.",
"H.H.C Z A A A   O + c.i.8.9.0.w.w.0.9.8.y.n.) ) ) ) ) ) ) ( H.H.",
"H.H.C A A A A N X : V.4.5.7.8.8.8.7.7.7.5.D.{ ) ) ) ) ) ) ( H.H.",
"H.H.C Z A A A A . 9 h.2.4.4.5.5.6.5.5.4.3.D.X.) ) ) ) ) ) ] H.H.",
"H.H.B Z A A A A A 8 h.1.2.2.3.2.3.4.2.2.1.V.X.) ) ) ) ) ) ' H.H.",
"H.H.B Z A A A A A S F.;.>.1.1.1.1.1.>.>.:.B.} ) ) ) ) ) ) ' H.H.",
"H.H.m B Z A A A A A G.,.=.;.>.;.;.;.;.=.<.m.) ) ) ) ) ) ] ` H.H.",
"H.H.n B Z A A A A A a.D.=.#.%.#.%.%.%.&.N.O.) ) ) ) ) ) ' [ H.H.",
"H.H.H.m C Z A A A A A s.M.*.#.#.@.@.*.j.d.) ) ) ) ) ) ] ` H.H.H.",
"H.H.H.n m C A A A A A A a.v.M.f.f.j.b.| ^ ) ) ) ) ( ] ` Y H.H.H.",
"H.H.H.v n m C A A A A A A A F G G D n H ) ) ) ) ) ] ' Y ! H.H.H.",
"H.H.H.H.v m m B A A A A A A A A Z M j / ) ) ) ) ] ` [ ! H.H.H.H.",
"H.H.H.H.H.v n m B Z A A A A A A Z B ~ ) ) ( ] ] ` ! ! H.H.H.H.H.",
"H.H.H.H.H.x c n m B B C Z A Z C B K ( ( ] ] ` ` Y ! Q H.H.H.H.H.",
"H.H.H.H.H.H.z x v m m B B B C B V _ ' ` ` [ ! ! ! E H.H.H.H.H.H.",
"H.H.H.H.H.H.H.H.z x v v n m B n L [ [ [ ! ! Q E H.H.H.H.H.H.H.H.",
"H.H.H.H.H.H.H.H.H.k z x x v v h ! ! Q Q E E T H.H.H.H.H.H.H.H.H.",
"H.H.H.H.H.H.H.H.H.H.H.H.k l l J R R T T H.H.H.H.H.H.H.H.H.H.H.H.",
"H.H.H.H.H.H.H.H.H.H.H.H.H.H.H.H.H.H.H.H.H.H.H.H.H.H.H.H.H.H.H.H.",
"H.H.H.H.H.H.H.H.H.H.H.H.H.H.H.H.H.H.H.H.H.H.H.H.H.H.H.H.H.H.H.H."
};
